<svg xmlns="http://www.w3.org/2000/svg" width="166" height="30" viewBox="0 0 166 30" fill="none">
  <path d="M0.5 0V5.11779H16.2686C16.8519 5.11779 17.144 5.82297 16.7316 6.23538L11.488 11.479C10.9559 12.011 10.2344 12.3099 9.48199 12.3099H0.5V29.7104L17.9005 12.3099H17.8944L17.9005 12.3038V12.3099L23.0182 7.19208V0H0.5Z" fill="url(#paint0_linear_1412_287)"/>
  <path d="M0.5 0V5.11779H16.2686C16.8519 5.11779 17.144 5.82297 16.7316 6.23538L11.488 11.479C10.9559 12.011 10.2344 12.3099 9.48199 12.3099H0.5V29.7104L17.9005 12.3099H17.8944L17.9005 12.3038V12.3099L23.0182 7.19208V0H0.5Z" fill="white"/>
  <path d="M26.1028 0.00851577H31.563V29.7104H26.1028V0.00851577ZM38.8591 12.3882V16.5775H28.8329V12.3882H38.8591ZM40.2241 0.00851577V4.15077H28.5505V0.00851577H40.2241ZM40.6007 25.5681V29.7104H28.5505V25.5681H40.6007Z" fill="white"/>
  <path d="M43.7085 0.00851577H49.1687V29.7104H43.7085V0.00851577ZM56.4647 12.3882V16.5775H46.4386V12.3882H56.4647ZM57.8298 0.00851577V4.15077H46.1562V0.00851577H57.8298ZM58.2064 25.5681V29.7104H46.1562V25.5681H58.2064Z" fill="white"/>
  <path d="M71.9522 12.8589V5.42169C71.9522 4.9196 71.8581 4.5901 71.6698 4.4332C71.5129 4.24491 71.1677 4.15077 70.6342 4.15077H62.538V0.00851577H72.2346C74.0547 0.00851577 75.357 0.416461 76.1415 1.23236C76.9574 2.04826 77.3654 3.19366 77.3654 4.66855V13.4708C77.3654 14.9457 76.9574 16.0911 76.1415 16.907C75.357 17.7229 74.0547 18.1309 72.2346 18.1309H63.6206V14.1298H70.6342C71.1677 14.1298 71.5129 14.0357 71.6698 13.8474C71.8581 13.6591 71.9522 13.3296 71.9522 12.8589ZM61.3141 0.00851577H66.7273V29.7104H61.3141V0.00851577ZM67.6687 16.0127H73.0819L78.8716 29.7104H73.0348L67.6687 16.0127Z" fill="white"/>
  <path d="M81.54 0.00851577H92.837C94.6571 0.00851577 95.9594 0.416461 96.7439 1.23236C97.5598 2.04826 97.9678 3.19366 97.9678 4.66855V11.0702C97.9678 12.0116 97.8109 12.7962 97.4971 13.4238C97.1833 14.02 96.6812 14.4436 95.9908 14.6947C96.6812 14.9457 97.1833 15.3537 97.4971 15.9185C97.8109 16.452 97.9678 17.1738 97.9678 18.0838V25.0503C97.9678 26.5252 97.5598 27.6706 96.7439 28.4865C95.9594 29.3024 94.6571 29.7104 92.837 29.7104H81.54V0.00851577ZM92.6017 24.4855V17.9426C92.6017 17.4405 92.5075 17.111 92.3192 16.9541C92.131 16.7658 91.7701 16.6717 91.2366 16.6717H86.9532V25.7564H91.2366C91.7701 25.7564 92.6017 25.7564 92.6017 25.7564C92.6017 25.7564 92.6017 25.7564 92.6017 24.4855ZM92.6017 11.4468V5.2334C92.6017 2.96051 92.6017 3.96248 92.6017 3.96248H91.2366H86.9532V12.7177H91.2366C91.7701 12.7177 92.131 12.6236 92.3192 12.4353C92.5075 12.247 92.6017 11.9175 92.6017 11.4468Z" fill="white"/>
  <path d="M112.815 24.2972V0.00851577H118.229V25.0503C118.229 26.5252 117.821 27.6706 117.005 28.4865C116.189 29.3024 114.886 29.7104 113.098 29.7104H109.709V25.5681H111.45C111.984 25.5681 112.345 25.474 112.533 25.2857C112.721 25.0974 112.815 24.7679 112.815 24.2972ZM107.638 0.00851577V24.2972C107.638 24.7679 107.732 25.0974 107.92 25.2857C108.108 25.474 108.453 25.5681 108.956 25.5681H110.462V29.7104H107.355C105.535 29.7104 104.217 29.3024 103.401 28.4865C102.617 27.6706 102.224 26.5252 102.224 25.0503V0.00851577H107.638Z" fill="white"/>
  <path d="M122.918 0.00851577H128.331V29.7104H122.918V0.00851577Z" fill="white"/>
  <path d="M133.116 0.00851577H138.529V29.7104H133.116V0.00851577ZM135.422 29.7104V25.5681H146.437V29.7104H135.422Z" fill="white"/>
  <path d="M160.04 11.4939V5.2334C160.04 4.73131 159.946 4.40181 159.757 4.24491C159.6 4.05663 159.255 3.96248 158.722 3.96248H151.285V0.00851577H160.369C162.158 0.00851577 163.46 0.416461 164.276 1.23236C165.092 2.04826 165.5 3.19366 165.5 4.66855V11.4939H160.04ZM160.04 24.4855V10.5524H165.5V25.0503C165.5 26.5252 165.092 27.6706 164.276 28.4865C163.46 29.3024 162.158 29.7104 160.369 29.7104H151.285V25.7564H158.722C159.255 25.7564 159.6 25.6779 159.757 25.521C159.946 25.3327 160.04 24.9876 160.04 24.4855ZM149.072 0.00851577H154.485V29.7104H149.072V0.00851577Z" fill="white"/>
  <defs>
    <linearGradient id="paint0_linear_1412_287" x1="-331.758" y1="-12.2899" x2="-331.758" y2="39.5809" gradientUnits="userSpaceOnUse">
      <stop stop-color="#BCBA82"/>
      <stop offset="1" stop-color="#F8E13A"/>
    </linearGradient>
  </defs>
</svg>
