<svg width="1323" height="476" viewBox="0 0 1323 476" fill="none" xmlns="http://www.w3.org/2000/svg">
<path d="M1 475.5V41C1 18.9086 18.9086 1 41 1H1282C1304.09 1 1322 18.9086 1322 41V475.5" stroke="#1F1F1F" stroke-width="2"/>
<path d="M21.5 473V43C21.5 30.8497 31.3497 21 43.5 21H568.727C572.593 21 575.727 24.134 575.727 28V43.5C575.727 47.366 578.861 50.5 582.727 50.5H668.098H740.781C744.647 50.5 747.781 47.366 747.781 43.5V28C747.781 24.134 750.915 21 754.781 21H1279.5C1291.65 21 1301.5 30.8497 1301.5 43V473" stroke="#1F1F1F"/>
<circle cx="661.5" cy="25" r="6.5" stroke="#1F1F1F"/>
</svg>
